# xmcd
#
# Track frame offsets:
# 150
# 60065
# 119757
# 174630
#
# Disc length: 3174 seconds
#
#
# Revision: 2
# Processed by: cddbd v1.5.2PL0 Copyright (c) Steve Scherf et al.
# Submitted via: FreeRIP 2.944 
#
DISCID=2e0c6404
DTITLE=Roland Santé - Cosmic Journey
DYEAR=2000
DGENRE=New Age
TTITLE0=Cosmic Song
TTITLE1=Galactic Time
TTITLE2=Starlight
TTITLE3=Heaven's Gate
EXTD=YEAR: 2000
EXTT0=
EXTT1=
EXTT2=
EXTT3=
PLAYORDER=
